<?xml version="1.0" encoding="UTF-8" standalone="no"?>
<!-- Created with Inkscape (http://www.inkscape.org/) -->

<svg
   xmlns:dc="http://purl.org/dc/elements/1.1/"
   xmlns:cc="http://creativecommons.org/ns#"
   xmlns:rdf="http://www.w3.org/1999/02/22-rdf-syntax-ns#"
   xmlns:svg="http://www.w3.org/2000/svg"
   xmlns="http://www.w3.org/2000/svg"
   xmlns:sodipodi="http://sodipodi.sourceforge.net/DTD/sodipodi-0.dtd"
   xmlns:inkscape="http://www.inkscape.org/namespaces/inkscape"
   width="64px"
   height="64px"
   id="svg2985"
   version="1.1"
   inkscape:version="0.48.0 r9654"
   sodipodi:docname="Note.svg"
   inkscape:export-filename="D:\Users\Ömercan\Projekte\FraktalExplorer\images\icons\Note.png"
   inkscape:export-xdpi="90"
   inkscape:export-ydpi="90">
  <defs
     id="defs2987">
    <filter
       id="filter3216"
       inkscape:label="Drop shadow"
       width="1.5"
       height="1.5"
       x="-.25"
       y="-.25">
      <feGaussianBlur
         id="feGaussianBlur3218"
         in="SourceAlpha"
         stdDeviation="1.5"
         result="blur" />
      <feColorMatrix
         id="feColorMatrix3220"
         result="bluralpha"
         type="matrix"
         values="1 0 0 0 0 0 1 0 0 0 0 0 1 0 0 0 0 0 0.5 0 " />
      <feOffset
         id="feOffset3222"
         in="bluralpha"
         dx="3"
         dy="3"
         result="offsetBlur" />
      <feMerge
         id="feMerge3224">
        <feMergeNode
           id="feMergeNode3226"
           in="offsetBlur" />
        <feMergeNode
           id="feMergeNode3228"
           in="SourceGraphic" />
      </feMerge>
    </filter>
  </defs>
  <sodipodi:namedview
     id="base"
     pagecolor="#ffffff"
     bordercolor="#666666"
     borderopacity="1.0"
     inkscape:pageopacity="0.0"
     inkscape:pageshadow="2"
     inkscape:zoom="4.48"
     inkscape:cx="32"
     inkscape:cy="31.750109"
     inkscape:current-layer="layer1"
     showgrid="true"
     inkscape:document-units="px"
     inkscape:grid-bbox="true"
     inkscape:window-width="1366"
     inkscape:window-height="706"
     inkscape:window-x="-8"
     inkscape:window-y="-8"
     inkscape:window-maximized="1">
    <inkscape:grid
       type="xygrid"
       id="grid2993"
       empspacing="4"
       visible="true"
       enabled="true"
       snapvisiblegridlinesonly="true" />
  </sodipodi:namedview>
  <metadata
     id="metadata2990">
    <rdf:RDF>
      <cc:Work
         rdf:about="">
        <dc:format>image/svg+xml</dc:format>
        <dc:type
           rdf:resource="http://purl.org/dc/dcmitype/StillImage" />
        <dc:title></dc:title>
      </cc:Work>
    </rdf:RDF>
  </metadata>
  <g
     id="layer1"
     inkscape:label="Layer 1"
     inkscape:groupmode="layer">
    <path
       style="fill:#ffff00;fill-opacity:1;fill-rule:nonzero;stroke-width:1;stroke-linecap:round;stroke-linejoin:round;stroke-miterlimit:4;filter:url(#filter3216)"
       d="M 12.000004,4 C 15.998459,3.8888788 20.000003,4 24.000002,4 28.000001,4 32.000001,4 36,4 39.999999,4 43.999999,4 47.999998,4 51.999997,4 56,4.0046 59.999996,4 c 1.164388,-0.00134 2.051819,0.494244 2.831006,1.169 0.88933,0.7701372 1.391487,1.9331698 1.169002,2.831 -1.014154,4.092587 -3.30683,7.840998 -3.999996,12 -0.657595,3.945576 2e-6,8 0,12 -2e-6,4 0.657588,8.054424 -8e-6,12 -0.693167,4.159001 -2.877535,7.935783 -3.999992,12 -0.311178,1.126719 -0.466143,2.025825 -1.169002,2.831 C 54.065754,59.70765 53.017592,59.97172 52,60 c -3.998455,0.111121 -7.999999,0 -11.999998,0 -3.999999,0 -7.999999,0 -11.999998,0 -3.999999,0 -7.999999,0 -11.999998,0 C 12.000007,60 8.0000045,59.9954 4.0000076,60 2.8356197,60.001338 1.9481889,59.505756 1.1690022,58.831 0.2796717,58.060862 -0.22248449,56.897831 0,56 1.0141523,51.907413 3.3068251,48.159001 3.999992,44 4.657588,40.054424 3.9999986,36 4,32 4.0000013,28 3.3424047,23.945576 4,20 4.6931662,15.840998 6.877539,12.064218 7.999996,8 8.3111737,6.8732808 8.4661395,5.9741749 9.1689982,5.169 9.9342494,4.29235 10.982412,4.0282799 12.000004,4 z"
       id="rect2995"
       inkscape:connector-curvature="0"
       sodipodi:nodetypes="sssssssssssssssssssssssss"
       transform="matrix(0.87600169,0,0,1.043569,3.9679463,-1.3942082)" />
  </g>
</svg>
